{"title":"The People Under the Stairs 1991 DVDRip BigPerm LKRG","uid":5644450,"size":917036716,"categoryP":"video","categoryS":"movies","magnet":"?xt=urn:btih:2dc37191176e375feb375852a54df32fad3c920f&amp;dn=The+People+Under+the+Stairs+1991+DVDRip+BigPerm+LKRG&amp;tr=udp%3A%2F%2Ftracker.openbittorrent.com%3A80&amp;tr=udp%3A%2F%2Fopen.demonii.com%3A1337&amp;tr=udp%3A%2F%2Ftracker.coppersurfer.tk%3A6969&amp;tr=udp%3A%2F%2Fexodus.desync.com%3A6969","seeders":5,"leechers":1,"uploader":"neon","files":-1,"time":1277242302,"description":"The People Under the Stairs 1991 DVDRip BigPerm LKRG\n\nencoded by bigperm  &lt;a href=&quot;\nhttp://img441.imageshack.us/img441/5863/547pdk.gif&quot; rel=&quot;nofollow&quot; target=&quot;_NEW&quot;&gt;\nhttp://img441.imageshack.us/img441/5863/547pdk.gif&lt;/a&gt;\t\n\nTwo adults and a juvenile burglar break into a house occupied by a brother and sister and their stolen children and can't escape. \n\nCast:\n\n\nBrandon Quintin Adams................Poindexter 'Fool' Williams (as Brandon Adams)\nEverett McGill.......................Man / Dad / Eldon Robeson\nWendy Robie..........................Woman; Mom\nA.J. Langer..........................Alice\nVing Rhame...........................Leroy\nSean Whalen..........................Roach\nBill Cobbs...........................Grandpa Booker\nKelly Jo Minter......................Ruby Williams\nJeremy Roberts.......................Spenser\nConni Marie Brazelton................Mary\nJoshua Cox...........................Young cop\nJohn Hostetter.......................Veteran cop\nJohn Mahon...........................Police sergeant\nTeresa Velarde.......................Social worker\nGeorge R. Parker.....................Attic Cop\n\n\nGeneral:\n\nFormat : MPEG-4\nFormat profile : Base Media / Version 2\nCodec ID : mp42\nFile size : 875 MiB\nDuration : 1h 41mn\nOverall bit rate : 1 199 Kbps\n\nVideo:\n\nID : 1\nFormat : AVC\nFormat/Info : Advanced Video Codec\nFormat profile : &lt;a class=&quot;__cf_email__&quot; href=&quot;/cdn-cgi/l/email-protection&quot; data-cfemail=&quot;105d71797e505c233e20&quot;&gt;[email&amp;#160;protected]&lt;/a&gt;&lt;script cf-hash='f9e31' type=&quot;text/javascript&quot;&gt;\n/* &lt;![CDATA[ */!function(){try{var t=&quot;currentScript&quot;in document?document.currentScript:function(){for(var t=document.getElementsByTagName(&quot;script&quot;),e=t.length;e--;)if(t[e].getAttribute(&quot;cf-hash&quot;))return t[e]}();if(t&amp;&amp;t.previousSibling){var e,r,n,i,c=t.previousSibling,a=c.getAttribute(&quot;data-cfemail&quot;);if(a){for(e=&quot;&quot;,r=parseInt(a.substr(0,2),16),n=2;a.length-n;n+=2)i=parseInt(a.substr(n,2),16)^r,e+=String.fromCharCode(i);e=document.createTextNode(e),c.parentNode.replaceChild(e,c)}}}catch(u){}}();/* ]]&gt; */&lt;/script&gt;\nFormat settings, CABAC : Yes\nFormat settings, ReFrames : 2 frames\nCodec ID : avc1\nCodec ID/Info : Advanced Video Coding\nDuration : 1h 41mn\nBit rate mode : Variable\nBit rate : 1 034 Kbps\nWidth : 720 pixels\nHeight : 462 pixels\nDisplay aspect ratio : 16:9\nFrame rate mode : Variable\nFrame rate : 23.976 fps\nMinimum frame rate : 11.989 fps\nMaximum frame rate : 29.970 fps\nResolution : 8 bits\nColorimetry : 4:2:0\nScan type : Progressive\nBits/(Pixel*Frame) : 0.130\nStream size : 754 MiB (86%)\nWriting library : x264 core 79\n\nAudio:\n\nID : 2\nFormat : AAC\nFormat/Info : Advanced Audio Codec\nFormat version : Version 4\nFormat profile : LC\nFormat settings, SBR : No\nCodec ID : 40\nDuration : 1h 41mn\nBit rate mode : Variable\nBit rate : 160 Kbps\nMaximum bit rate : 220 Kbps\nChannel(s) : 2 channels\nChannel positions : Front: L R\nSampling rate : 48.0 KHz\nStream size : 117 MiB (13%)\nLanguage : English","torrent":{"xt":"urn:btih:2dc37191176e375feb375852a54df32fad3c920f","amp;dn":"The+People+Under+the+Stairs+1991+DVDRip+BigPerm+LKRG","amp;tr":["udp%3A%2F%2Ftracker.openbittorrent.com%3A80","udp%3A%2F%2Fopen.demonii.com%3A1337","udp%3A%2F%2Ftracker.coppersurfer.tk%3A6969","udp%3A%2F%2Fexodus.desync.com%3A6969"],"infoHash":"2dc37191176e375feb375852a54df32fad3c920f","infoHashBuffer":{"type":"Buffer","data":[45,195,113,145,23,110,55,95,235,55,88,82,165,77,243,47,173,60,146,15]},"announce":[],"urlList":[]}}